<?xml version="1.0" encoding="UTF-8" standalone="no"?>
<svg xmlns="http://www.w3.org/2000/svg"
     xmlns:svg="http://www.w3.org/2000/svg"
     version="1.1"
     width="2.71333in" height="3.33333in"
     viewBox="0 0 814 1000">
  <path id="Selection"
        fill="none" stroke="black" stroke-width="1"
        d="M 404.00,230.00
           C 404.00,230.00 403.04,221.00 403.04,221.00
             403.04,221.00 403.04,203.00 403.04,203.00
             403.03,183.95 409.72,159.65 416.80,142.00
             438.66,87.50 476.52,46.99 529.00,20.75
             552.85,8.83 579.13,0.00 606.00,0.00
             610.86,27.13 605.32,59.05 596.67,85.00
             578.03,140.91 539.95,186.84 487.00,213.25
             463.41,225.01 441.45,231.31 415.00,231.00
             415.00,231.00 404.00,230.00 404.00,230.00 Z
           M 789.00,341.00
           C 789.00,341.00 756.00,366.29 756.00,366.29
             739.90,380.40 723.76,399.80 712.42,418.00
             667.48,490.19 669.88,586.67 719.43,656.00
             736.77,680.27 758.18,699.63 783.00,716.00
             789.88,720.54 797.62,725.04 805.00,728.73
             807.97,730.22 812.90,731.45 813.59,735.11
             814.25,738.56 807.98,754.87 806.42,759.00
             798.58,779.79 789.88,800.45 779.31,820.00
             759.37,856.89 744.08,880.39 718.87,914.00
             694.90,945.97 663.29,981.52 624.00,993.97
             609.10,998.69 597.38,999.18 582.00,999.00
             547.04,998.59 517.98,980.40 486.00,969.34
             459.81,960.29 441.15,959.69 414.00,960.00
             387.76,960.31 358.91,971.39 335.00,981.42
             315.88,989.45 290.90,999.75 270.00,1000.00
             255.47,1000.17 245.25,1000.51 231.00,996.28
             204.20,988.32 181.27,969.41 162.83,949.00
             141.96,925.89 123.67,901.31 105.58,876.00
             84.51,846.53 65.45,811.30 51.15,778.00
             30.31,729.47 15.55,681.15 6.92,629.00
             6.92,629.00 0.91,577.00 0.91,577.00
             0.91,577.00 0.00,565.00 0.00,565.00
             0.00,565.00 0.00,518.00 0.00,518.00
             0.00,518.00 3.73,482.00 3.73,482.00
             10.35,436.08 25.53,391.74 51.35,353.00
             81.55,307.70 126.85,271.62 179.00,255.03
             196.07,249.60 223.20,244.03 241.00,244.00
             241.00,244.00 257.00,244.00 257.00,244.00
             288.88,244.05 324.71,258.48 354.00,270.20
             369.26,276.30 394.95,286.81 411.00,287.00
             430.17,287.22 450.36,278.86 468.00,271.80
             490.55,262.78 513.40,253.79 537.00,247.89
             549.89,244.67 562.79,242.82 576.00,241.91
             576.00,241.91 586.00,241.00 586.00,241.00
             646.17,240.30 706.40,258.69 752.00,298.85
             765.42,310.66 779.49,325.80 789.00,341.00 Z" />
</svg>
